<svg version="1.1" xmlns="http://www.w3.org/2000/svg" xmlns:xlink="http://www.w3.org/1999/xlink" width="170.97791" height="73.59227" viewBox="0,0,170.97791,73.59227"><g transform="translate(-154.39986,-142.68828)"><g data-paper-data="{&quot;isPaintingLayer&quot;:true}" fill-rule="nonzero" stroke="none" stroke-width="0.95" stroke-linecap="butt" stroke-linejoin="miter" stroke-miterlimit="10" stroke-dasharray="" stroke-dashoffset="0" style="mix-blend-mode: normal"><g><path d="M275.9905,171.05993c0.0085,0.45295 -1.3452,0.67481 -2.3218,0.78349c-2.0701,0.23396 -4.161,0.27351 -6.3166,0.06482c-2.2515,-0.21772 -5.0331,-1.24006 -2.4538,-2.17158c-4.5306,-0.55314 -7.468,-1.30214 -7.2609,-1.678c0.0238,-0.35347 2.1651,-0.71219 6.4258,-0.80282c-1.4829,-0.24352 -4.7785,-1.12794 -4.0318,-1.55019c0.7467,-0.42227 4.7966,-0.39771 7.0813,-0.43507c0,0 -7.6541,-1.24908 -5.4311,-2.08366c1.5855,-0.59449 6.8865,-0.39391 10.8091,-0.1002c0,0 -14.9882,-2.13149 -11.0352,-3.06915c3.0903,-0.73277 10.8528,0.10054 12.4165,0.24641c-2.4311,-0.62607 -6.5151,-2.14232 -7.6589,-3.62537c-3.8238,-4.95331 20.1495,-3.20149 27.6982,-0.87609c4.3462,1.33952 5.1385,2.08455 5.1385,2.08455c1.7984,0.81382 2.5669,1.57909 2.8358,2.31004c0.6013,1.64281 -1.0897,2.53011 -3.2386,2.92384c-9.2653,1.69896 -22.6945,5.72113 -22.6565,7.97899z" fill="#279afa"/><path d="M275.9905,171.05993c0.0085,0.45295 -1.3452,0.67481 -2.3218,0.78368c-2.0701,0.23396 -4.161,0.27349 -6.3166,0.0648c-2.2515,-0.21772 -5.0331,-1.24004 -2.4538,-2.17156c0,0 -7.3796,-1.83778 6.1816,-1.94754c0,0 -12.8506,-2.09774 3.1445,-2.01561c0,0 -17.1066,-2.81316 6.081,-1.99284c0,0 -22.819,-3.87666 2.7417,-2.46168c0,0 -17.5997,-6.07802 -4.7719,-6.6689c7.2058,-0.33181 18.1479,1.98653 20.7746,3.19679c1.7984,0.81382 2.5669,1.57909 2.8358,2.31004c0.6013,1.64281 -1.0897,2.53011 -3.2386,2.92384c-9.2653,1.69896 -22.6945,5.72113 -22.6565,7.97899z" fill="#0043a5"/></g><path d="M278.5517,188.9945c1.9332,-3.3478 4.4564,-4.8099 8.3001,-5.282c1.6502,-0.1891 2.8291,-0.1416 4.1496,0.8493c1.2027,0.8958 -0.4664,3.3221 -5.8653,4.2664c5.8036,0.5396 8.8835,1.2037 9.3547,3.4675c0.3543,1.768 -2.1689,2.7113 -3.9606,2.452c-4.0783,-0.589 -8.5357,-2.1689 -10.469,1.5095c-0.4949,0.9434 -0.7077,1.862 -1.6976,2.1689c-1.0849,0.3306 -2.4054,-0.3534 -2.547,-1.5086c-0.2356,-2.052 0.9016,-3.3155 0.3772,-5.282c-0.1881,-0.7078 -7.9221,-3.6784 -11.0818,-4.9514c1.5561,-0.3772 3.6072,-1.7214 5.1405,-2.1698c1.0374,-0.3069 5.7057,2.2163 8.2992,4.4802z" fill="#ffa600"/><g><path d="M285.6225,165.2654c-0.2964,1.7622 -0.1833,3.3525 0.2964,4.8906c-4.6578,14.0391 -12.672,26.3843 -26.1373,31.5808c-7.6931,2.9697 -23.484,-2.0244 -34.1459,-13.091c-6.8837,5.5338 -11.5425,10.0273 -19.7049,12.9561c-8.7903,3.1531 -5.9565,-5.6192 -3.932,-9.3983c-3.7791,1.0801 -9.9874,0.5405 -11.2024,-2.0245c-1.2502,-2.6381 1.5019,-4.7737 4.7414,-6.1227c-3.6442,-0.9443 -8.8578,-1.4621 -8.5025,-5.1281c0.3867,-3.9995 3.7611,-3.5948 9.5827,-4.5895c-3.2395,-2.4291 -7.2884,-6.4106 -5.5338,-9.9873c1.8886,-3.7791 10.3731,-6.5636 34.2789,11.0684c7.2874,1.35 34.2152,-16.872 44.8096,-23.4849c13.8339,-8.6374 29.1346,-13.8871 41.5691,-3.5093c0.9291,0.7752 1.6872,1.5504 2.3218,2.3227c-3.9016,-1.6777 -8.6184,-1.2635 -12.8801,-0.1748c-0.9623,0.2461 -1.9028,0.5225 -2.8034,0.8208c-5.8036,1.9228 -9.9874,5.3305 -12.0118,11.0666c-0.3487,0.987 -0.5966,1.9171 -0.7458,2.8044z" fill="#ff0600"/><path d="M298.3801,151.3935c-5.8036,1.9228 -9.9874,5.3304 -12.0109,11.0675c-0.3486,0.987 -0.5966,1.9171 -0.7457,2.8044c-1.7822,0.3534 -5.9632,-0.5206 -9.2749,-4.9457c-2.7483,-3.6718 0.2765,-8.4341 4.6835,-10.4177c6.9863,-3.1379 14.5702,-3.9254 20.1514,0.6707c-0.9623,0.246 -1.9028,0.5225 -2.8034,0.8208z" fill="#0043a5"/><path d="M315.7907,151.6633c0,0 17.7052,15.1867 4.9942,43.0521c-2.4472,-11.287 -10.6799,-28.9674 -21.9992,-25.1028c-0.4721,3.8807 1.3994,7.6076 5.111,8.8226c-4.4545,3.5426 -11.0152,1.2664 -14.6936,-2.8842c-1.634,-1.842 -2.7189,-3.5815 -3.2851,-5.3979c-0.4788,-1.5371 -0.5919,-3.1274 -0.2955,-4.8896c0.1501,-0.8873 0.3981,-1.8174 0.7458,-2.8044c2.0244,-5.7361 6.2082,-9.1438 12.0118,-11.0666c0.9006,-0.2983 1.842,-0.5747 2.8034,-0.8208c4.2617,-1.0887 8.9785,-1.5029 12.8801,0.1748c0.5957,0.2565 1.1733,0.5577 1.7271,0.9168z" fill="#ffa600"/></g><path d="M273.283,202.9671c3.4827,-4.2988 7.3758,-5.8007 12.9133,-5.6069c2.375,0.1026 5.0977,1.0269 5.5537,3.3449c0.8227,4.1848 -9.1779,1.8896 -11.2024,3.914c7.4224,-0.9452 14.365,3.2775 14.5246,6.5816c0.1035,2.5783 -3.6727,3.3469 -6.1475,2.5793c-5.6335,-1.7461 -11.5786,-4.9761 -15.1344,-0.2109c-0.9111,1.2226 -1.4174,2.4747 -2.8852,2.6856c-1.6064,0.2242 -3.3202,-1.0383 -3.2613,-2.7027c0.1263,-2.9517 2.6837,-4.6341 1.7157,-7.3806c-1.4991,-4.2522 -9.4611,-6.8162 -14.555,-9.4791c2.2838,-0.1843 5.7675,-1.386 7.524,-3.0058c1.8877,0.6745 7.7948,5.5015 10.9545,9.2806z" fill="#ffa600"/><g><path d="M295.3011,152.7539c4.4774,5.0207 -3.0666,12.4583 -9.7128,7.5192c-2.5944,-1.9285 -2.1698,-5.6601 -0.7049,-7.3264c2.394,-2.7246 7.7615,-3.173 10.4177,-0.1928z" fill="#ffffff"/><path d="M293.6747,155.5051c0.5928,0 1.1296,0.2166 1.5181,0.5662c0.3886,0.3496 0.6289,0.8322 0.6289,1.3651c0,0.533 -0.2403,1.0156 -0.6289,1.3652c-0.3885,0.3496 -0.9253,0.5662 -1.5181,0.5662c-0.5928,0 -1.1295,-0.2166 -1.5181,-0.5662c-0.3885,-0.3496 -0.6289,-0.8322 -0.6289,-1.3652c0,-0.5329 0.2404,-1.0155 0.6289,-1.3651c0.3886,-0.3496 0.9253,-0.5662 1.5181,-0.5662z" fill="#272525"/></g><g><path d="M267.3711,172.27927c2.85,0.39812 3.3621,1.00989 3.4096,1.40657c0.1178,0.843 -0.9956,1.52109 -3.7117,1.99899c-2.8348,0.49969 -11.0675,0.45198 -15.237,-1.16405c-6.4249,0.90345 -13.0445,1.14473 -15.2703,0.7488c-2.204,-0.31935 -3.06,-1.29426 -0.8522,-2.68419c-2.4975,0.2403 -10.1992,0.47205 -12.3642,-0.13042c-2.1651,-0.60272 0.6289,-1.82576 1.8838,-2.56109c0,0 -12.8345,1.24898 -16.625,-0.17178c-2.7008,-1.01259 2.0131,-2.46494 6.4154,-3.4112c0,0 -23.1544,2.72456 -26.4661,0.68051c-2.5878,-1.59718 7.7055,-3.24725 9.6406,-3.59914c-5.5166,0.19406 -17.7013,0.10989 -27.7599,-0.84864c-33.5986,-3.20124 -6.9711,-9.02254 12.5514,-9.28829c11.2451,-0.15295 16.4407,0.26207 16.4407,0.26207c6.2833,0.16591 11.589,0.60566 16.3552,1.16921c10.7093,1.26611 15.1772,2.57016 16.2507,3.57835c4.6293,4.34915 21.1346,12.03096 35.339,14.01431z" fill="#279afa"/><path d="M267.3711,172.27927c2.85,0.39812 3.3621,1.00989 3.4096,1.40608c0.1178,0.843 -0.9956,1.52109 -3.7117,1.99899c-2.8348,0.49969 -11.0675,0.45198 -15.237,-1.16405c0,0 -16.3495,0.6443 -8.2004,-3.62093c0,0 -21.5498,2.0969 -10.6077,-2.74779c0,0 -28.8164,2.7735 -8.55,-3.62974c0,0 -39.2198,3.58912 -13.6724,-3.01795c0,0 -49.6413,0.04013 -44.992,-4.42503c2.6125,-2.50824 24.3048,-3.82352 33.6167,-3.56145c6.2833,0.16591 11.589,0.60566 16.3552,1.16921c10.7093,1.26611 15.1772,2.57016 16.2507,3.57835c4.6293,4.34915 21.1346,12.03096 35.339,14.01431z" fill="#0043a5"/></g></g></g></svg>